<?xml version="1.0" encoding="UTF-8" standalone="no"?>
<svg
   viewBox="0 0 24 16"
   width="16"
   version="1.1"
   id="svg243"
   sodipodi:docname="sharing_settings.svg"
   height="16"
   inkscape:version="1.1 (c68e22c387, 2021-05-23)"
   xmlns:inkscape="http://www.inkscape.org/namespaces/inkscape"
   xmlns:sodipodi="http://sodipodi.sourceforge.net/DTD/sodipodi-0.dtd"
   xmlns="http://www.w3.org/2000/svg"
   xmlns:svg="http://www.w3.org/2000/svg">
  <defs
     id="defs247" />
  <sodipodi:namedview
     id="namedview245"
     pagecolor="#ffffff"
     bordercolor="#666666"
     borderopacity="1.0"
     inkscape:pageshadow="2"
     inkscape:pageopacity="0.0"
     inkscape:pagecheckerboard="0"
     showgrid="false"
     height="16px"
     inkscape:zoom="36.375"
     inkscape:cx="2.7216495"
     inkscape:cy="12"
     inkscape:window-width="2076"
     inkscape:window-height="1499"
     inkscape:window-x="1474"
     inkscape:window-y="623"
     inkscape:window-maximized="0"
     inkscape:current-layer="svg243" />
  <g
     class="jp-icon3"
     fill="#616161"
     id="g241"
     transform="matrix(0.84329897,0,0,0.84329897,0.72577321,-2.7793815)">
    <path
       d="M 3.9,12 C 3.9,10.29 5.29,8.9 7,8.9 h 4 V 7 H 7 c -2.76,0 -5,2.24 -5,5 0,2.76 2.24,5 5,5 h 4 V 15.1 H 7 C 5.29,15.1 3.9,13.71 3.9,12 Z M 8,13 h 8 V 11 H 8 Z m 9,-6 h -4 v 1.9 h 4 c 1.71,0 3.1,1.39 3.1,3.1 0,1.71 -1.39,3.1 -3.1,3.1 H 13 V 17 h 4 c 2.76,0 5,-2.24 5,-5 0,-2.76 -2.24,-5 -5,-5 z"
       id="path239" />
  </g>
  <path
     class="jp-icon3 jp-icon-selectable"
     fill="#616161"
     d="m 22.044588,14.062728 c 0.01287,-0.102929 0.02252,-0.205857 0.02252,-0.315219 0,-0.109361 -0.0096,-0.212289 -0.02252,-0.315218 l 0.678684,-0.530724 c 0.06112,-0.04825 0.07719,-0.135093 0.0386,-0.205857 l -0.643306,-1.112912 c -0.0386,-0.07076 -0.125444,-0.09649 -0.196206,-0.07076 l -0.800912,0.321651 C 20.954191,11.705025 20.774066,11.59888 20.577859,11.518467 l -0.122227,-0.852375 a 0.15696571,0.15696571 0 0 0 -0.15761,-0.135093 h -1.286603 c -0.08041,0 -0.14796,0.05789 -0.15761,0.135093 l -0.122227,0.852375 c -0.196207,0.08041 -0.376332,0.189775 -0.54359,0.315219 l -0.800911,-0.321651 c -0.07398,-0.02895 -0.157609,0 -0.196207,0.07076 l -0.643303,1.112913 c -0.04182,0.07076 -0.02252,0.157609 0.0386,0.205856 l 0.678684,0.530725 c -0.01286,0.102928 -0.02252,0.209073 -0.02252,0.315217 0,0.106145 0.0096,0.21229 0.02252,0.315219 l -0.678684,0.530724 c -0.06112,0.04825 -0.07719,0.135094 -0.0386,0.205856 l 0.643303,1.112913 c 0.0386,0.07076 0.125444,0.0965 0.196207,0.07076 l 0.800911,-0.32165 c 0.167258,0.12866 0.347383,0.234805 0.54359,0.315218 l 0.122227,0.852375 c 0.0096,0.07719 0.07719,0.135093 0.15761,0.135093 h 1.286603 c 0.08041,0 0.14796,-0.05789 0.15761,-0.135093 l 0.122227,-0.852375 c 0.196207,-0.08041 0.376332,-0.189774 0.54359,-0.315218 l 0.800912,0.32165 c 0.07398,0.02895 0.157608,0 0.196206,-0.07076 l 0.643302,-1.112913 c 0.0386,-0.07076 0.02252,-0.157608 -0.0386,-0.205856 z m -2.389867,0.81056 c -0.620787,0 -1.125779,-0.504992 -1.125779,-1.125779 0,-0.620786 0.504992,-1.125778 1.125779,-1.125778 0.620786,0 1.125778,0.504992 1.125778,1.125778 0,0.620787 -0.504992,1.125779 -1.125778,1.125779 z"
     id="path338"
     style="stroke-width:0.321651" />
</svg>
