<svg id="svg" version="1.1" xmlns="http://www.w3.org/2000/svg" xmlns:xlink="http://www.w3.org/1999/xlink" width="400" height="392.9824561403509" viewBox="0, 0, 400,392.9824561403509"><g id="svgg"><path id="path0" d="M146.891 47.493 L 146.199 48.574 147.239 47.621 C 148.364 46.590,148.466 46.411,147.931 46.411 C 147.740 46.411,147.272 46.898,146.891 47.493 M143.166 54.474 C 142.765 54.957,142.792 55.064,143.315 55.064 C 143.666 55.064,143.953 54.798,143.953 54.474 C 143.953 54.149,143.886 53.884,143.804 53.884 C 143.723 53.884,143.435 54.149,143.166 54.474 M125.826 80.334 C 125.183 81.273,125.150 81.404,125.701 80.826 C 126.113 80.393,126.705 79.818,127.017 79.548 C 127.351 79.258,127.402 79.056,127.142 79.056 C 126.899 79.056,126.307 79.631,125.826 80.334 M210.816 88.453 C 210.816 88.718,210.612 88.809,210.362 88.655 C 210.094 88.489,210.014 88.546,210.168 88.795 C 210.311 89.026,210.205 89.305,209.934 89.414 C 209.626 89.538,209.607 89.625,209.883 89.644 C 210.456 89.685,211.399 88.554,211.069 88.224 C 210.930 88.085,210.816 88.188,210.816 88.453 M202.774 99.248 C 202.379 99.537,202.124 99.965,202.207 100.199 C 202.296 100.446,202.855 100.226,203.540 99.675 C 204.797 98.663,204.103 98.276,202.774 99.248 M193.495 113.668 C 193.452 113.992,193.438 114.390,193.464 114.553 C 193.489 114.715,193.333 114.848,193.117 114.848 C 192.901 114.848,192.724 115.026,192.724 115.244 C 192.724 115.766,194.218 114.834,194.482 114.147 C 194.591 113.861,194.521 113.726,194.326 113.846 C 194.131 113.967,193.881 113.844,193.772 113.572 C 193.631 113.223,193.550 113.251,193.495 113.668 M189.333 120.822 C 188.035 122.262,187.902 122.667,188.802 122.431 C 189.645 122.211,190.506 120.977,190.283 120.309 C 190.211 120.092,189.783 120.323,189.333 120.822 M172.548 146.939 C 171.833 147.897,172.027 148.154,172.998 147.538 C 173.290 147.353,173.467 146.929,173.392 146.596 C 173.285 146.127,173.096 146.204,172.548 146.939 M79.825 246.401 C 79.462 246.763,78.293 247.022,76.709 247.089 C 74.395 247.188,74.154 247.280,73.951 248.144 C 73.738 249.048,72.503 249.847,71.878 249.485 C 71.716 249.391,71.556 249.723,71.523 250.223 C 71.490 250.722,71.444 251.350,71.421 251.618 C 71.397 251.886,70.970 252.391,70.471 252.740 C 69.948 253.106,69.656 253.617,69.782 253.945 C 69.914 254.288,69.832 254.411,69.578 254.254 C 69.283 254.071,69.195 255.345,69.288 258.461 L 69.420 262.930 70.403 262.930 C 71.218 262.930,71.389 263.122,71.400 264.047 C 71.408 264.730,71.714 265.341,72.187 265.620 C 73.158 266.194,206.960 266.494,212.055 265.934 C 218.689 265.205,218.465 265.470,218.559 258.224 C 218.635 252.339,218.540 251.962,216.912 251.659 C 216.480 251.579,216.123 251.339,216.120 251.125 C 216.117 250.912,215.956 250.489,215.764 250.185 C 215.509 249.783,215.554 249.719,215.929 249.951 C 216.280 250.168,216.349 250.116,216.147 249.788 C 215.983 249.524,215.604 249.401,215.304 249.517 C 215.004 249.632,214.799 249.599,214.849 249.445 C 215.035 248.870,213.662 247.318,213.446 247.858 C 213.300 248.224,213.229 248.189,213.207 247.741 C 213.182 247.232,212.686 247.093,210.745 247.049 C 209.209 247.014,208.075 246.778,207.666 246.407 C 206.689 245.523,80.709 245.517,79.825 246.401 " stroke="none" fill="#e2dcd4" fill-rule="evenodd"></path><path id="path1" d="M186.300 8.754 C 186.964 9.848,179.145 11.661,177.678 10.754 C 177.506 10.648,177.390 10.707,177.421 10.885 C 177.559 11.678,177.352 12.219,176.996 11.999 C 176.773 11.861,176.707 12.019,176.841 12.369 C 177.020 12.835,176.786 12.991,175.853 13.029 C 175.181 13.056,174.454 13.122,174.238 13.176 C 174.022 13.230,173.680 13.296,173.478 13.324 C 173.276 13.351,173.000 13.723,172.864 14.151 C 172.718 14.612,172.011 15.110,171.131 15.374 C 169.859 15.755,169.670 15.955,169.824 16.759 C 169.977 17.560,169.848 17.699,168.954 17.699 C 168.141 17.699,167.811 17.966,167.493 18.879 C 167.198 19.724,166.827 20.059,166.186 20.059 C 165.505 20.059,165.233 20.342,165.054 21.239 C 164.890 22.060,164.588 22.419,164.060 22.419 C 163.567 22.419,163.154 22.843,162.879 23.633 C 162.646 24.301,162.113 24.938,161.694 25.047 C 160.883 25.259,160.293 26.756,160.440 28.224 C 160.511 28.931,160.282 29.163,159.321 29.355 C 158.391 29.541,158.112 29.806,158.112 30.503 C 158.112 31.001,157.855 31.666,157.541 31.980 C 157.227 32.294,157.094 32.676,157.246 32.828 C 157.398 32.980,157.345 33.068,157.129 33.025 C 156.322 32.862,155.840 33.053,155.858 33.530 C 155.949 35.977,155.740 36.527,154.671 36.650 C 154.076 36.719,153.567 36.996,153.540 37.266 C 153.513 37.537,153.469 38.133,153.441 38.591 C 153.404 39.220,153.201 39.373,152.606 39.218 C 152.174 39.104,151.718 39.177,151.594 39.378 C 151.469 39.579,151.578 39.696,151.836 39.636 C 152.094 39.577,152.357 39.838,152.420 40.216 C 152.493 40.646,152.286 40.905,151.870 40.905 C 151.437 40.905,151.174 41.261,151.120 41.923 C 151.002 43.342,150.668 43.757,149.822 43.536 C 149.421 43.431,149.115 43.460,149.142 43.600 C 149.169 43.740,149.081 44.120,148.947 44.444 C 148.813 44.769,148.641 45.654,148.564 46.411 C 148.487 47.168,148.347 47.713,148.253 47.623 C 147.727 47.115,146.313 48.510,146.313 49.537 C 146.313 50.489,146.167 50.652,145.395 50.567 C 144.890 50.512,144.443 50.660,144.401 50.897 C 144.359 51.134,144.223 52.168,144.099 53.196 C 143.929 54.603,143.709 55.064,143.205 55.064 C 142.273 55.064,141.593 55.843,141.593 56.912 C 141.593 57.439,141.355 57.817,141.025 57.817 C 140.169 57.817,139.233 59.403,139.233 60.854 C 139.233 62.096,138.711 62.434,137.168 62.190 C 137.006 62.165,136.894 62.276,136.920 62.439 C 137.154 63.923,136.815 64.973,136.156 64.801 C 135.620 64.661,135.455 64.821,135.500 65.439 C 135.534 65.893,135.325 66.501,135.037 66.789 C 134.749 67.077,134.513 67.743,134.513 68.268 C 134.513 68.793,134.336 69.245,134.120 69.272 C 133.904 69.299,133.512 69.344,133.250 69.371 C 132.987 69.398,132.599 70.039,132.386 70.796 C 132.174 71.554,131.678 72.406,131.284 72.692 C 130.889 72.977,130.657 73.356,130.768 73.535 C 130.878 73.714,130.704 73.962,130.381 74.086 C 130.058 74.210,129.794 74.746,129.794 75.276 C 129.794 76.037,129.533 76.297,128.561 76.511 C 127.883 76.660,127.500 76.895,127.709 77.034 C 128.292 77.420,127.519 79.940,126.927 79.585 C 126.651 79.419,126.685 79.587,127.009 79.986 C 127.316 80.364,127.404 80.643,127.205 80.605 C 126.328 80.438,125.894 80.689,125.633 81.514 C 125.478 82.001,125.386 82.456,125.428 82.524 C 125.469 82.593,124.924 83.041,124.215 83.518 C 123.506 83.996,122.909 84.736,122.887 85.163 C 122.775 87.398,122.677 87.633,121.757 87.864 C 121.081 88.034,120.763 88.422,120.675 89.185 C 120.605 89.792,120.335 90.222,120.059 90.167 C 119.789 90.113,119.567 90.265,119.567 90.504 C 119.567 90.744,119.340 90.852,119.062 90.746 C 118.784 90.639,118.530 90.841,118.498 91.195 C 118.186 94.649,118.119 94.798,116.859 94.893 C 116.048 94.954,115.857 95.408,116.014 96.897 C 116.062 97.350,115.893 97.563,115.571 97.455 C 114.799 97.198,114.152 98.031,113.843 99.679 C 113.590 101.031,112.380 102.655,111.627 102.655 C 111.451 102.655,111.308 103.110,111.308 103.666 C 111.308 104.223,111.042 104.943,110.718 105.268 C 110.393 105.592,110.128 105.723,110.128 105.558 C 110.128 105.393,109.868 105.601,109.550 106.021 C 109.233 106.441,108.967 107.271,108.960 107.866 C 108.953 108.493,108.730 108.948,108.429 108.948 C 107.754 108.948,106.179 110.759,106.522 111.140 C 106.666 111.302,106.555 111.301,106.274 111.139 C 105.855 110.897,105.855 110.733,106.274 110.224 C 106.725 109.676,106.648 109.637,105.605 109.885 C 103.305 110.431,102.857 110.511,103.346 110.287 C 103.617 110.163,103.750 109.915,103.640 109.738 C 103.530 109.560,103.839 109.492,104.326 109.586 C 105.133 109.742,105.142 109.727,104.425 109.417 C 103.992 109.230,102.842 109.118,101.868 109.169 C 98.787 109.329,98.857 109.314,99.452 109.691 C 99.799 109.911,99.842 110.118,99.575 110.284 C 99.348 110.423,98.981 110.224,98.758 109.841 C 98.408 109.240,98.351 109.293,98.340 110.226 C 98.333 110.920,98.117 111.308,97.738 111.308 C 97.414 111.308,97.148 111.015,97.148 110.657 C 97.148 110.059,97.092 110.057,96.453 110.636 C 96.070 110.982,95.039 111.308,94.160 111.359 C 92.676 111.447,92.568 111.532,92.630 112.561 C 92.683 113.450,92.530 113.668,91.854 113.668 C 90.824 113.668,90.069 114.370,90.069 115.328 C 90.069 115.722,89.628 116.245,89.089 116.491 C 88.333 116.836,88.208 117.057,88.543 117.461 C 88.871 117.856,88.822 118.045,88.343 118.228 C 87.942 118.382,87.709 118.935,87.709 119.731 C 87.709 120.424,87.430 121.334,87.090 121.754 C 86.749 122.174,86.600 122.269,86.757 121.965 C 86.946 121.602,86.888 121.509,86.590 121.693 C 86.340 121.847,86.133 122.273,86.130 122.639 C 86.124 123.212,86.071 123.222,85.742 122.714 C 85.430 122.230,85.360 122.273,85.355 122.951 C 85.352 123.407,85.801 124.267,86.354 124.863 C 87.381 125.971,87.398 126.745,86.377 125.897 C 85.937 125.532,85.747 125.542,85.518 125.940 C 85.356 126.221,85.359 126.328,85.525 126.179 C 86.196 125.574,87.840 127.741,87.786 129.161 C 87.758 129.924,87.882 130.640,88.062 130.752 C 88.242 130.863,88.300 131.428,88.189 132.006 C 88.049 132.740,88.126 132.972,88.445 132.775 C 88.696 132.619,88.800 132.328,88.675 132.126 C 88.551 131.925,88.814 131.760,89.259 131.760 C 90.046 131.760,90.266 132.276,90.136 133.825 C 90.104 134.204,90.283 134.513,90.532 134.513 C 90.782 134.513,90.871 134.629,90.730 134.769 C 90.590 134.910,90.781 135.279,91.157 135.588 C 91.784 136.106,91.786 136.134,91.170 135.942 C 90.706 135.797,90.568 135.905,90.718 136.296 C 90.880 136.719,91.120 136.759,91.681 136.459 C 92.370 136.090,92.590 136.229,92.479 136.961 C 92.455 137.117,92.981 137.136,93.646 137.003 C 94.886 136.755,95.281 138.137,94.199 138.932 C 93.982 139.091,94.554 139.224,95.469 139.227 C 96.914 139.232,97.166 139.363,97.380 140.216 C 97.516 140.757,97.829 141.227,98.076 141.260 C 98.323 141.292,98.702 141.343,98.918 141.372 C 99.572 141.460,100.755 142.230,100.822 142.612 C 100.857 142.808,101.039 142.918,101.228 142.855 C 101.417 142.792,101.457 143.038,101.318 143.402 C 101.105 143.957,101.160 143.984,101.663 143.567 C 102.134 143.176,102.262 143.174,102.262 143.557 C 102.262 143.856,102.576 143.962,103.072 143.833 C 103.583 143.699,103.967 143.840,104.110 144.213 C 104.295 144.695,104.400 144.707,104.670 144.281 C 104.897 143.923,105.005 143.905,105.009 144.225 C 105.012 144.482,104.825 144.810,104.593 144.954 C 104.328 145.117,104.476 145.429,104.987 145.787 C 105.435 146.101,105.940 146.273,106.108 146.170 C 106.276 146.066,106.851 146.336,107.386 146.771 C 107.920 147.205,108.109 147.430,107.806 147.269 C 107.441 147.077,107.349 147.132,107.534 147.432 C 107.688 147.682,108.114 147.889,108.479 147.892 C 109.053 147.897,109.063 147.951,108.555 148.279 C 108.123 148.558,108.412 148.662,109.636 148.667 C 111.044 148.672,111.308 148.797,111.308 149.459 C 111.308 149.892,111.495 150.246,111.724 150.246 C 111.953 150.246,112.059 150.379,111.958 150.541 C 111.858 150.703,112.565 150.831,113.529 150.826 C 114.931 150.819,115.159 150.906,114.671 151.263 C 113.975 151.772,113.855 152.606,114.477 152.606 C 114.707 152.606,114.770 152.406,114.619 152.161 C 114.452 151.890,114.558 151.791,114.891 151.907 C 115.192 152.012,115.389 152.373,115.330 152.710 C 115.256 153.129,115.447 153.265,115.932 153.138 C 117.018 152.854,118.804 153.662,118.550 154.323 C 118.286 155.010,118.648 155.255,120.375 155.559 C 121.855 155.820,122.368 156.166,121.654 156.421 C 121.396 156.514,121.282 156.843,121.401 157.152 C 121.519 157.461,121.778 157.615,121.975 157.493 C 122.172 157.371,122.232 157.106,122.107 156.905 C 121.687 156.225,122.587 156.533,123.290 157.310 C 123.673 157.734,124.099 158.067,124.236 158.050 C 125.243 157.924,125.543 158.196,125.373 159.081 C 125.205 159.963,125.308 160.046,126.509 160.001 C 128.055 159.943,128.636 160.348,127.816 160.912 C 127.390 161.205,127.496 161.236,128.217 161.031 C 129.131 160.771,129.158 160.802,128.623 161.497 C 128.308 161.907,128.198 162.118,128.378 161.966 C 128.559 161.814,128.949 161.931,129.243 162.226 C 129.538 162.521,130.137 162.668,130.573 162.554 C 131.019 162.438,131.367 162.539,131.367 162.786 C 131.367 163.587,133.103 164.979,133.962 164.866 C 134.943 164.737,135.601 165.938,134.822 166.433 C 134.509 166.631,134.841 166.743,135.693 166.728 C 136.450 166.714,136.849 166.614,136.578 166.505 C 136.308 166.395,136.087 166.122,136.087 165.897 C 136.087 165.647,136.310 165.674,136.664 165.968 C 136.981 166.231,137.203 166.649,137.156 166.896 C 137.104 167.166,137.563 167.320,138.303 167.282 C 139.274 167.233,139.503 167.359,139.380 167.877 C 139.138 168.891,139.733 169.484,141.097 169.588 C 142.014 169.658,142.237 169.806,141.947 170.155 C 141.492 170.704,142.141 171.285,142.773 170.895 C 142.989 170.761,143.166 170.826,143.166 171.039 C 143.166 171.253,142.856 171.518,142.478 171.629 C 142.099 171.741,142.482 171.769,143.329 171.693 C 144.632 171.575,145.056 171.744,146.082 172.789 L 147.296 174.024 153.294 174.132 C 157.115 174.201,159.292 174.097,159.292 173.846 C 159.292 173.629,159.479 173.451,159.709 173.451 C 159.938 173.451,160.005 173.646,159.858 173.884 C 159.426 174.582,161.038 173.608,161.677 172.785 C 162.208 172.102,162.197 172.101,161.400 172.779 C 160.598 173.460,160.565 173.456,160.354 172.649 C 160.201 172.066,160.291 171.875,160.651 172.014 C 162.172 172.597,167.066 170.091,166.633 168.950 C 166.354 168.215,167.138 166.673,167.685 166.883 C 167.972 166.993,168.207 166.852,168.207 166.568 C 168.207 166.278,167.935 166.139,167.584 166.250 C 167.053 166.417,167.046 166.386,167.538 166.038 C 167.935 165.758,168.268 165.757,168.604 166.036 C 168.973 166.342,169.054 166.239,168.935 165.620 C 168.848 165.168,168.899 164.798,169.049 164.798 C 169.499 164.798,169.576 157.922,169.139 156.773 C 168.901 156.145,168.888 155.802,169.108 155.938 C 169.333 156.077,169.433 155.263,169.360 153.896 C 169.214 151.183,169.378 150.610,170.205 150.927 C 170.617 151.085,170.731 151.011,170.543 150.706 C 170.386 150.453,170.439 150.246,170.660 150.246 C 170.881 150.246,171.260 149.494,171.503 148.574 C 171.746 147.655,172.386 146.516,172.926 146.044 C 173.465 145.571,173.945 144.952,173.993 144.667 C 174.178 143.556,175.060 142.418,175.581 142.618 C 176.195 142.853,176.799 142.157,176.266 141.828 C 175.756 141.512,176.709 138.798,177.257 139.008 C 177.856 139.238,178.429 138.531,178.781 137.129 C 178.986 136.314,179.152 136.155,179.397 136.541 C 179.655 136.947,179.734 136.908,179.738 136.369 C 179.742 135.984,180.010 135.567,180.334 135.442 C 180.674 135.312,180.924 134.724,180.924 134.055 C 180.924 133.416,181.081 132.991,181.273 133.109 C 181.465 133.228,181.841 133.061,182.108 132.739 C 182.472 132.301,182.477 132.153,182.129 132.153 C 181.874 132.153,181.779 131.968,181.919 131.741 C 182.093 131.460,182.354 131.478,182.738 131.797 C 183.201 132.181,183.253 132.137,183.030 131.555 C 182.823 131.015,182.891 130.921,183.316 131.163 C 183.754 131.414,183.774 131.374,183.408 130.978 C 183.048 130.589,183.061 130.285,183.463 129.642 C 183.749 129.185,183.929 128.487,183.861 128.091 C 183.772 127.573,183.913 127.440,184.365 127.613 C 185.099 127.895,185.630 127.206,185.638 125.959 C 185.641 125.462,185.887 125.074,186.199 125.074 C 186.932 125.074,188.864 122.758,188.552 122.253 C 188.418 122.037,188.866 121.285,189.546 120.583 C 190.354 119.749,190.697 119.081,190.534 118.656 C 190.357 118.194,190.579 117.893,191.298 117.619 C 192.058 117.331,192.424 116.790,192.757 115.468 C 193.033 114.371,193.558 113.469,194.143 113.086 C 194.660 112.747,195.084 112.126,195.084 111.706 C 195.084 111.286,195.446 110.748,195.889 110.511 C 196.782 110.033,197.529 108.489,197.596 106.981 C 197.628 106.268,197.833 106.031,198.340 106.116 C 198.812 106.196,199.227 105.812,199.613 104.936 C 199.928 104.222,200.630 103.107,201.173 102.458 C 201.715 101.809,202.160 100.876,202.161 100.385 C 202.162 99.826,202.515 99.331,203.103 99.063 C 204.181 98.572,205.003 97.046,204.665 96.165 C 204.509 95.757,204.615 95.635,204.999 95.783 C 205.567 96.001,206.577 94.455,206.707 93.170 C 206.797 92.271,207.274 91.594,207.652 91.828 C 208.108 92.110,208.737 91.248,209.079 89.870 C 209.241 89.222,209.863 88.250,210.462 87.709 C 212.037 86.288,212.441 83.354,211.139 82.793 C 209.767 82.201,209.874 79.232,211.329 77.502 C 211.912 76.809,212.389 76.003,212.389 75.711 C 212.389 75.419,212.802 74.855,213.306 74.459 C 213.811 74.062,214.344 73.256,214.492 72.667 C 214.640 72.079,215.252 71.019,215.852 70.312 C 216.453 69.605,217.154 68.540,217.411 67.945 C 217.669 67.350,218.036 66.863,218.227 66.863 C 218.419 66.863,218.880 66.065,219.253 65.089 C 219.626 64.113,220.262 63.137,220.666 62.921 C 221.071 62.704,221.518 61.909,221.659 61.154 C 221.801 60.399,222.384 59.166,222.955 58.415 C 223.525 57.663,224.258 56.677,224.582 56.224 C 225.031 55.597,225.743 55.348,227.559 55.184 L 229.946 54.968 230.027 53.344 C 230.219 49.494,230.268 34.678,230.088 34.691 C 229.350 34.743,229.191 34.540,229.695 34.187 C 230.167 33.856,230.122 33.819,229.466 34.001 C 228.929 34.151,228.400 33.956,227.930 33.437 C 227.536 33.002,226.881 32.645,226.475 32.645 C 226.069 32.645,225.620 32.335,225.478 31.957 C 224.147 28.430,215.928 19.067,211.996 16.598 C 211.455 16.258,210.659 15.677,210.226 15.306 C 209.794 14.935,208.643 14.359,207.670 14.026 C 206.696 13.693,205.226 13.070,204.404 12.641 C 203.498 12.170,201.713 11.767,199.880 11.621 C 195.296 11.256,194.052 10.824,193.566 9.430 L 193.155 8.250 189.637 8.353 C 187.702 8.410,186.200 8.590,186.300 8.754 M229.277 13.742 C 229.729 14.028,229.745 14.215,229.356 14.684 C 228.867 15.273,229.453 16.106,229.984 15.575 C 230.113 15.445,229.991 15.339,229.713 15.339 C 229.313 15.339,229.307 15.218,229.681 14.766 C 230.201 14.140,229.923 13.369,229.180 13.379 C 228.886 13.382,228.922 13.518,229.277 13.742 M230.297 21.613 C 230.157 21.840,230.180 22.247,230.349 22.517 C 230.791 23.226,230.936 24.470,230.549 24.230 C 230.368 24.118,230.220 24.277,230.220 24.582 C 230.220 24.888,230.368 25.046,230.549 24.934 C 230.914 24.708,230.802 25.921,230.398 26.567 C 229.958 27.271,230.667 28.059,231.182 27.439 C 232.144 26.280,232.482 24.694,232.047 23.377 C 231.548 21.865,230.681 20.992,230.297 21.613 M231.633 25.226 C 231.105 26.212,231.072 26.173,231.072 24.575 C 231.072 23.395,231.142 23.287,231.548 23.843 C 231.880 24.296,231.905 24.717,231.633 25.226 M86.928 124.428 C 86.932 124.675,87.106 124.612,87.316 124.287 C 87.655 123.763,87.701 123.763,87.732 124.287 C 87.752 124.612,87.840 125.266,87.929 125.742 C 88.018 126.218,87.887 126.734,87.637 126.888 C 87.335 127.075,87.265 126.953,87.429 126.526 C 87.580 126.132,87.285 125.417,86.673 124.689 C 86.027 123.922,85.893 123.583,86.296 123.738 C 86.641 123.870,86.925 124.180,86.928 124.428 M168.240 167.742 C 167.109 168.737,166.909 169.125,167.525 169.125 C 167.726 169.125,168.269 168.594,168.732 167.945 C 169.741 166.527,169.659 166.493,168.240 167.742 M76.119 266.531 C 79.033 267.208,208.307 267.237,210.912 266.561 C 212.409 266.172,199.086 266.077,143.472 266.077 C 90.236 266.077,74.619 266.182,76.119 266.531 " stroke="none" fill="#80b0b0" fill-rule="evenodd"></path><path id="path2" d="M198.040 3.922 C 197.898 4.152,197.610 4.233,197.399 4.102 C 196.861 3.770,195.794 4.740,196.028 5.350 C 196.160 5.693,195.756 5.893,194.768 5.976 C 193.085 6.115,192.758 6.965,193.510 9.242 C 194.038 10.841,195.108 11.241,199.880 11.621 C 201.713 11.767,203.498 12.170,204.404 12.641 C 205.226 13.070,206.696 13.693,207.670 14.026 C 208.643 14.359,209.794 14.935,210.226 15.306 C 210.659 15.677,211.455 16.258,211.996 16.598 C 215.928 19.067,224.147 28.430,225.478 31.957 C 225.620 32.335,226.041 32.645,226.413 32.645 C 226.784 32.645,227.483 33.016,227.966 33.470 C 229.582 34.989,230.247 34.053,230.346 30.119 C 230.414 27.389,230.586 26.540,231.237 25.712 C 232.054 24.674,232.018 24.350,230.951 23.107 C 230.539 22.628,230.347 21.452,230.318 19.242 C 230.283 16.623,230.152 15.996,229.570 15.671 C 229.042 15.375,228.972 15.146,229.293 14.760 C 229.618 14.369,229.476 14.065,228.707 13.505 C 228.150 13.099,227.663 12.366,227.626 11.876 C 227.583 11.306,227.234 10.904,226.657 10.759 C 226.150 10.632,225.655 10.132,225.526 9.619 C 225.389 9.075,224.833 8.543,224.153 8.306 C 223.394 8.041,223.009 7.637,223.009 7.105 C 223.009 6.472,222.675 6.249,221.430 6.050 C 220.332 5.874,219.960 5.663,220.211 5.357 C 220.437 5.080,220.373 4.735,220.040 4.429 C 219.700 4.115,219.423 4.082,219.266 4.337 C 219.131 4.554,218.854 4.629,218.649 4.502 C 218.444 4.376,218.367 4.126,218.477 3.947 C 218.587 3.769,214.092 3.596,208.488 3.564 C 201.673 3.525,198.212 3.644,198.040 3.922 M185.345 8.937 C 185.072 9.035,184.669 9.449,184.451 9.858 C 184.117 10.482,184.165 10.559,184.750 10.338 C 186.227 9.778,186.806 8.413,185.345 8.937 M231.239 25.226 C 230.753 26.136,230.418 26.190,230.758 25.304 C 230.907 24.914,230.849 24.748,230.614 24.894 C 230.397 25.028,230.220 24.888,230.220 24.582 C 230.220 24.277,230.397 24.136,230.614 24.271 C 230.856 24.420,230.906 24.223,230.744 23.762 C 230.486 23.026,230.493 23.025,231.056 23.751 C 231.472 24.288,231.523 24.697,231.239 25.226 M230.180 38.545 C 230.180 39.302,230.261 39.612,230.360 39.233 C 230.459 38.854,230.459 38.235,230.360 37.856 C 230.261 37.478,230.180 37.788,230.180 38.545 M230.228 45.428 C 230.227 47.375,230.293 48.221,230.376 47.308 C 230.458 46.395,230.459 44.802,230.378 43.768 C 230.297 42.734,230.229 43.481,230.228 45.428 M148.055 46.366 C 148.174 46.558,147.974 46.956,147.611 47.251 C 147.027 47.727,146.985 47.698,147.246 47.001 C 147.470 46.401,147.430 46.323,147.078 46.672 C 146.493 47.253,146.900 47.944,147.755 47.818 C 148.463 47.715,148.933 46.018,148.254 46.018 C 148.026 46.018,147.937 46.175,148.055 46.366 M230.180 52.311 C 230.180 53.068,230.261 53.378,230.360 52.999 C 230.459 52.620,230.459 52.001,230.360 51.622 C 230.261 51.244,230.180 51.554,230.180 52.311 M225.847 55.343 C 225.347 55.439,224.525 56.186,223.995 57.027 C 223.470 57.858,222.856 58.651,222.631 58.791 C 222.406 58.930,222.022 59.835,221.779 60.803 C 221.535 61.771,221.020 62.732,220.633 62.939 C 220.247 63.145,219.626 64.113,219.253 65.089 C 218.880 66.065,218.419 66.863,218.227 66.863 C 218.036 66.863,217.669 67.350,217.411 67.945 C 217.154 68.540,216.453 69.605,215.852 70.312 C 215.252 71.019,214.640 72.079,214.492 72.667 C 214.344 73.256,213.811 74.062,213.306 74.459 C 212.802 74.855,212.389 75.419,212.389 75.711 C 212.389 76.003,211.912 76.809,211.329 77.502 C 209.902 79.198,209.768 82.198,211.093 82.779 C 211.644 83.022,212.014 83.593,212.111 84.353 L 212.263 85.546 212.326 84.316 C 212.361 83.633,212.127 82.867,211.799 82.596 C 210.651 81.643,211.529 79.115,214.481 74.872 C 216.030 72.645,219.254 67.599,220.190 65.936 C 220.695 65.040,221.326 64.041,221.593 63.717 C 221.861 63.392,222.775 61.734,223.626 60.032 C 225.235 56.812,226.098 55.952,228.230 55.446 L 229.499 55.144 228.122 55.158 C 227.365 55.165,226.341 55.249,225.847 55.343 M232.722 56.615 C 232.838 57.060,233.090 57.424,233.281 57.424 C 233.811 57.424,233.695 56.789,233.069 56.270 C 232.611 55.889,232.548 55.951,232.722 56.615 M246.681 63.741 C 246.776 64.025,247.086 64.335,247.370 64.430 C 247.665 64.528,247.812 64.381,247.714 64.086 C 247.619 63.802,247.309 63.492,247.026 63.397 C 246.731 63.299,246.583 63.446,246.681 63.741 M126.106 79.370 C 125.866 79.758,126.304 80.406,126.876 80.509 C 127.111 80.551,127.303 80.347,127.303 80.055 C 127.303 79.745,127.057 79.618,126.714 79.750 C 126.331 79.897,126.224 79.815,126.409 79.516 C 126.565 79.263,126.605 79.056,126.497 79.056 C 126.389 79.056,126.213 79.197,126.106 79.370 M210.678 87.499 C 210.278 87.802,210.066 88.237,210.207 88.465 C 210.363 88.717,210.224 88.788,209.853 88.646 C 209.461 88.495,209.243 88.633,209.243 89.031 C 209.243 89.975,210.358 89.368,211.037 88.055 C 211.702 86.769,211.682 86.738,210.678 87.499 M201.078 102.650 C 200.332 103.843,200.497 104.063,201.377 103.048 C 202.237 102.056,202.315 101.868,201.865 101.868 C 201.700 101.868,201.346 102.220,201.078 102.650 M109.789 105.146 C 109.460 105.542,109.493 105.670,109.920 105.670 C 110.232 105.670,110.578 105.434,110.689 105.146 C 110.799 104.857,110.740 104.621,110.557 104.621 C 110.374 104.621,110.028 104.857,109.789 105.146 M199.267 105.606 C 199.135 105.950,198.722 106.179,198.348 106.115 C 197.916 106.041,197.630 106.285,197.563 106.785 C 197.505 107.217,197.557 107.350,197.680 107.080 C 197.802 106.809,198.131 106.588,198.411 106.588 C 198.998 106.588,200.016 105.489,199.711 105.185 C 199.599 105.073,199.399 105.262,199.267 105.606 M97.708 109.531 C 97.279 109.855,97.164 110.108,97.443 110.115 C 97.714 110.122,97.935 110.315,97.935 110.544 C 97.935 110.773,97.758 110.851,97.542 110.718 C 97.325 110.584,97.148 110.662,97.148 110.891 C 97.148 111.120,97.414 111.308,97.738 111.308 C 98.117 111.308,98.333 110.920,98.340 110.226 C 98.351 109.293,98.408 109.240,98.758 109.841 C 98.981 110.224,99.348 110.423,99.575 110.284 C 99.843 110.118,99.801 109.898,99.452 109.651 C 99.059 109.373,99.141 109.321,99.760 109.456 C 100.223 109.556,100.805 109.512,101.054 109.358 C 101.303 109.204,100.823 109.051,99.986 109.018 C 99.149 108.986,98.124 109.216,97.708 109.531 M103.628 109.357 C 103.500 109.565,103.538 109.737,103.713 109.741 C 103.888 109.744,103.766 109.932,103.441 110.160 C 102.962 110.496,102.998 110.535,103.638 110.369 C 106.658 109.587,106.806 109.579,106.274 110.224 C 105.880 110.702,105.872 110.911,106.236 111.137 C 106.536 111.322,106.607 111.263,106.429 110.975 C 106.275 110.725,106.293 110.521,106.470 110.521 C 108.108 110.521,107.430 109.135,105.757 109.062 C 104.714 109.017,103.757 109.150,103.628 109.357 M194.303 113.266 C 194.005 113.680,193.645 113.948,193.504 113.861 C 193.363 113.773,193.248 113.971,193.248 114.299 C 193.248 114.727,193.529 114.614,194.243 113.900 C 194.791 113.353,195.150 112.817,195.042 112.709 C 194.934 112.601,194.602 112.851,194.303 113.266 M87.866 117.029 C 87.583 118.157,87.829 118.603,88.504 118.186 C 88.833 117.982,88.839 117.787,88.526 117.474 C 88.213 117.161,88.339 116.907,88.983 116.549 L 89.872 116.055 88.995 116.041 C 88.377 116.032,88.043 116.324,87.866 117.029 M86.916 121.436 C 86.911 122.013,86.851 122.031,86.544 121.545 C 86.102 120.846,85.521 121.928,85.871 122.799 C 85.995 123.107,86.086 123.027,86.105 122.592 C 86.122 122.201,86.304 121.985,86.509 122.112 C 86.715 122.239,87.075 121.984,87.310 121.545 C 87.597 121.008,87.604 120.747,87.329 120.747 C 87.106 120.747,86.920 121.057,86.916 121.436 M87.204 124.404 C 87.089 124.704,87.139 125.182,87.316 125.467 C 87.764 126.192,87.363 127.034,86.693 126.777 C 86.387 126.659,86.136 126.410,86.136 126.224 C 86.136 126.038,86.422 125.995,86.771 126.129 C 87.313 126.337,87.340 126.248,86.954 125.527 C 86.301 124.306,85.801 124.486,85.875 125.914 C 85.921 126.810,86.187 127.240,86.844 127.482 C 87.383 127.681,87.659 127.671,87.526 127.456 C 87.403 127.257,87.483 126.983,87.704 126.847 C 87.925 126.710,88.007 126.040,87.886 125.357 C 87.625 123.876,87.483 123.677,87.204 124.404 M185.251 127.395 C 185.251 127.683,184.963 127.789,184.543 127.655 C 183.990 127.480,183.835 127.646,183.835 128.415 C 183.835 128.957,183.972 129.400,184.140 129.400 C 184.601 129.400,185.788 127.446,185.501 127.159 C 185.363 127.022,185.251 127.128,185.251 127.395 M88.623 132.019 C 88.766 132.161,88.708 132.487,88.495 132.744 C 88.222 133.073,88.393 133.339,89.075 133.650 C 90.181 134.154,90.521 133.841,90.201 132.615 C 90.063 132.088,89.668 131.760,89.171 131.760 C 88.727 131.760,88.481 131.877,88.623 132.019 M179.880 135.907 C 179.752 136.241,179.758 136.624,179.892 136.759 C 180.027 136.894,180.138 136.787,180.138 136.522 C 180.138 136.257,180.285 136.131,180.465 136.243 C 180.646 136.354,180.793 136.188,180.793 135.873 C 180.793 135.115,180.175 135.138,179.880 135.907 M93.019 137.266 C 92.885 137.483,92.973 137.660,93.215 137.660 C 93.457 137.660,93.553 137.825,93.429 138.026 C 93.304 138.227,93.402 138.515,93.646 138.666 C 94.113 138.955,94.772 138.200,94.783 137.365 C 94.790 136.781,93.368 136.701,93.019 137.266 M100.167 142.245 C 99.870 142.543,100.614 143.559,101.130 143.559 C 101.320 143.559,101.475 143.382,101.475 143.166 C 101.475 142.950,101.254 142.817,100.983 142.871 C 100.713 142.925,100.536 142.748,100.590 142.478 C 100.699 141.932,100.558 141.854,100.167 142.245 M175.987 142.345 C 176.184 142.665,176.054 142.784,175.596 142.701 C 175.219 142.632,174.833 142.842,174.740 143.166 C 174.603 143.645,174.642 143.655,174.947 143.220 C 175.229 142.817,175.362 142.803,175.483 143.165 C 175.600 143.514,175.779 143.482,176.140 143.048 C 176.524 142.585,176.529 142.383,176.163 142.157 C 175.854 141.966,175.793 142.031,175.987 142.345 M106.927 146.683 C 107.437 147.128,107.648 147.493,107.395 147.493 C 107.142 147.493,107.044 147.670,107.178 147.886 C 107.312 148.102,107.809 148.259,108.283 148.234 C 108.956 148.198,108.993 148.148,108.451 148.007 C 108.070 147.908,107.847 147.682,107.956 147.506 C 108.065 147.330,107.669 146.890,107.076 146.529 L 105.998 145.873 106.927 146.683 M111.701 150.621 C 112.026 150.841,112.588 151.023,112.951 151.026 C 113.313 151.030,113.667 151.271,113.737 151.563 C 113.838 151.985,113.999 151.964,114.518 151.465 C 115.125 150.881,115.111 150.835,114.321 150.821 C 113.854 150.812,112.940 150.674,112.291 150.514 C 111.440 150.303,111.275 150.333,111.701 150.621 M114.585 152.409 C 114.585 152.746,114.746 152.967,114.943 152.902 C 115.139 152.836,115.300 152.615,115.300 152.409 C 115.300 152.204,115.139 151.982,114.943 151.916 C 114.746 151.851,114.585 152.073,114.585 152.409 M120.662 156.402 C 120.761 156.916,121.027 157.452,121.254 157.592 C 121.511 157.751,121.572 157.599,121.416 157.193 C 121.278 156.833,121.337 156.539,121.546 156.539 C 122.218 156.539,121.953 155.851,121.205 155.655 C 120.624 155.503,120.518 155.648,120.662 156.402 M122.058 157.146 C 122.058 157.490,122.285 157.666,122.583 157.551 C 122.871 157.441,123.107 157.522,123.107 157.731 C 123.107 157.941,123.312 158.112,123.561 158.112 C 123.819 158.112,123.708 157.772,123.304 157.325 C 122.450 156.382,122.058 156.326,122.058 157.146 M280.039 157.989 C 280.039 158.427,281.549 159.906,281.735 159.650 C 281.799 159.561,281.444 159.062,280.946 158.541 C 280.447 158.020,280.039 157.772,280.039 157.989 M126.440 160.096 C 126.312 160.303,126.561 160.472,126.994 160.472 C 127.427 160.472,127.890 160.649,128.024 160.865 C 128.157 161.082,128.058 161.259,127.802 161.259 C 127.456 161.259,127.462 161.409,127.827 161.849 C 128.489 162.646,129.067 162.594,128.926 161.750 C 128.718 160.515,126.920 159.318,126.440 160.096 M134.531 165.619 C 134.773 166.070,135.049 166.361,135.144 166.265 C 135.420 165.990,134.862 164.798,134.457 164.798 C 134.256 164.798,134.290 165.167,134.531 165.619 M168.935 165.620 C 169.054 166.239,168.973 166.342,168.604 166.036 C 168.268 165.757,167.935 165.758,167.538 166.038 C 167.046 166.386,167.053 166.417,167.584 166.250 C 167.935 166.139,168.207 166.278,168.207 166.568 C 168.207 166.852,167.972 166.993,167.685 166.883 C 167.107 166.661,166.360 168.233,166.664 169.031 C 166.791 169.365,166.613 169.449,166.120 169.289 C 165.621 169.126,165.545 169.164,165.883 169.408 C 166.446 169.815,165.034 171.270,163.756 171.599 C 163.142 171.758,163.162 171.794,163.883 171.832 C 164.694 171.876,167.158 169.839,167.158 169.125 C 167.158 168.942,167.689 168.261,168.338 167.612 C 169.458 166.493,169.945 164.798,169.147 164.798 C 168.944 164.798,168.848 165.168,168.935 165.620 M136.087 165.900 C 136.087 166.159,136.308 166.389,136.578 166.411 C 136.849 166.432,136.627 166.577,136.087 166.732 L 135.103 167.013 136.141 167.219 C 136.871 167.365,137.155 167.268,137.100 166.895 C 136.991 166.149,136.087 165.261,136.087 165.900 M144.670 172.117 C 145.208 173.153,146.991 174.351,147.615 174.097 C 147.878 173.990,147.796 173.893,147.427 173.876 C 147.067 173.859,146.712 173.712,146.639 173.550 C 146.566 173.387,145.997 172.812,145.373 172.271 C 144.355 171.388,144.283 171.372,144.670 172.117 M160.507 172.954 C 160.824 173.787,160.774 173.869,160.079 173.648 C 159.646 173.511,159.292 173.572,159.292 173.784 C 159.292 174.426,161.362 173.987,161.918 173.226 C 162.671 172.197,162.575 172.009,161.293 172.009 C 160.247 172.009,160.179 172.091,160.507 172.954 M210.920 266.511 C 208.696 267.116,77.631 267.170,75.516 266.567 C 74.975 266.413,75.241 266.536,76.106 266.840 C 78.480 267.674,208.024 267.716,211.152 266.884 C 212.310 266.575,213.357 266.223,213.479 266.102 C 213.792 265.789,213.273 265.872,210.920 266.511 M0.000 381.121 C 0.000 381.337,0.265 381.514,0.590 381.514 C 0.914 381.514,1.180 381.337,1.180 381.121 C 1.180 380.905,0.914 380.728,0.590 380.728 C 0.265 380.728,0.000 380.905,0.000 381.121 M4.326 383.205 C 4.326 383.558,4.725 384.055,5.211 384.311 L 6.096 384.775 5.314 383.833 C 4.884 383.315,4.485 382.817,4.429 382.727 C 4.373 382.637,4.326 382.852,4.326 383.205 " stroke="none" fill="#5c9494" fill-rule="evenodd"></path><path id="path3" d="M228.230 55.446 C 226.098 55.952,225.235 56.812,223.626 60.032 C 222.775 61.734,221.861 63.392,221.593 63.717 C 221.326 64.041,220.695 65.040,220.190 65.936 C 219.254 67.599,216.030 72.645,214.481 74.872 C 211.550 79.084,210.652 81.644,211.777 82.577 C 212.089 82.836,212.398 83.561,212.465 84.188 C 212.560 85.080,212.712 85.249,213.165 84.966 C 213.653 84.662,213.669 84.327,213.270 82.832 C 212.709 80.736,213.290 79.128,215.911 75.516 C 216.775 74.326,217.697 72.911,217.960 72.370 C 218.223 71.829,219.246 70.182,220.232 68.710 C 222.283 65.649,223.729 63.194,225.141 60.374 C 226.256 58.146,227.836 56.251,228.595 56.230 C 228.875 56.222,229.548 55.963,230.088 55.654 C 231.238 54.997,230.478 54.912,228.230 55.446 M280.802 158.210 C 281.943 159.512,281.849 159.502,281.849 158.326 C 281.849 157.655,281.713 157.472,281.407 157.727 C 281.127 157.959,280.761 157.917,280.410 157.611 C 280.104 157.346,280.281 157.616,280.802 158.210 M312.942 200.129 C 312.225 200.922,312.067 201.562,312.682 201.181 C 313.093 200.928,314.001 199.410,313.742 199.410 C 313.660 199.410,313.300 199.734,312.942 200.129 M73.746 266.737 C 74.479 267.313,75.560 267.648,77.044 267.759 C 78.259 267.849,80.011 268.171,80.938 268.475 C 83.109 269.186,203.406 269.311,205.706 268.605 C 206.461 268.373,208.387 268.025,209.984 267.831 C 211.581 267.638,213.174 267.227,213.524 266.917 C 213.873 266.608,214.513 266.255,214.946 266.134 C 215.379 266.012,215.202 265.977,214.553 266.056 C 213.904 266.134,212.399 266.479,211.209 266.821 C 207.506 267.887,78.569 267.741,75.516 266.667 C 72.718 265.682,72.421 265.694,73.746 266.737 M268.032 319.567 C 268.032 333.845,268.081 339.628,268.141 332.420 C 268.201 325.211,268.201 313.530,268.141 306.461 C 268.081 299.392,268.032 305.290,268.032 319.567 M311.997 366.372 C 312.001 367.237,312.082 367.545,312.176 367.055 C 312.270 366.566,312.266 365.858,312.168 365.482 C 312.070 365.106,311.993 365.506,311.997 366.372 " stroke="none" fill="#4c4c54" fill-rule="evenodd"></path><path id="path4" d="M230.088 55.638 C 229.548 55.956,228.875 56.222,228.595 56.230 C 227.836 56.251,226.256 58.146,225.141 60.374 C 223.729 63.194,222.283 65.649,220.232 68.710 C 219.246 70.182,218.223 71.829,217.960 72.370 C 217.697 72.911,216.775 74.326,215.911 75.516 C 213.290 79.128,212.709 80.736,213.270 82.832 C 213.669 84.327,213.653 84.662,213.165 84.971 C 212.759 85.227,213.137 85.339,214.428 85.343 C 216.144 85.349,216.279 85.423,216.395 86.431 C 216.524 87.556,216.569 87.572,219.738 87.670 C 220.800 87.703,221.009 87.873,221.114 88.791 C 221.244 89.916,221.288 89.932,224.458 90.030 C 225.520 90.063,225.729 90.233,225.834 91.150 C 225.952 92.173,226.081 92.238,228.196 92.349 C 230.300 92.460,230.440 92.530,230.556 93.529 C 230.664 94.463,230.864 94.602,232.205 94.676 C 233.789 94.764,235.202 95.688,235.202 96.637 C 235.202 96.937,235.423 97.154,235.693 97.119 C 237.077 96.939,237.561 97.191,237.561 98.090 C 237.561 99.204,238.200 99.508,240.543 99.508 C 242.227 99.508,242.281 99.547,242.281 100.734 C 242.281 101.742,242.413 101.925,243.024 101.766 C 244.065 101.493,244.815 102.059,244.827 103.126 C 244.835 103.813,245.093 104.061,245.895 104.154 C 246.622 104.238,246.991 104.536,247.075 105.110 C 247.154 105.646,247.601 106.052,248.325 106.245 C 248.946 106.410,249.692 106.885,249.983 107.302 C 250.275 107.718,251.161 108.366,251.951 108.741 C 252.742 109.116,253.480 109.772,253.592 110.199 C 253.704 110.626,254.200 111.129,254.696 111.318 C 255.192 111.506,255.902 112.302,256.274 113.087 C 256.647 113.871,257.367 114.786,257.876 115.119 C 258.384 115.452,258.800 116.037,258.800 116.418 C 258.800 117.317,259.807 118.145,260.553 117.859 C 260.873 117.736,261.257 117.832,261.405 118.072 C 261.580 118.355,261.494 118.397,261.159 118.190 C 260.767 117.947,260.704 118.098,260.896 118.818 C 261.036 119.338,261.152 119.897,261.155 120.059 C 261.158 120.221,261.591 120.354,262.117 120.354 C 262.869 120.354,263.101 120.586,263.199 121.436 C 263.294 122.258,263.546 122.528,264.252 122.564 C 265.347 122.619,265.860 123.296,265.589 124.331 C 265.429 124.942,265.613 125.074,266.621 125.074 C 267.792 125.074,267.847 125.145,267.847 126.673 C 267.847 128.658,268.424 129.794,269.434 129.794 C 270.030 129.794,270.206 130.063,270.206 130.973 C 270.206 132.022,270.338 132.153,271.386 132.153 C 272.447 132.153,272.570 132.282,272.605 133.432 C 272.700 136.555,272.738 136.676,273.627 136.688 C 274.820 136.705,274.885 136.825,275.011 139.253 C 275.116 141.267,275.188 141.404,276.205 141.521 C 277.285 141.645,277.655 143.435,277.303 146.828 C 277.205 147.771,277.989 148.673,278.908 148.673 C 279.640 148.673,280.011 152.678,279.700 157.222 C 279.589 158.853,280.247 160.079,281.233 160.079 C 281.983 160.079,282.006 160.408,282.006 171.276 L 282.006 182.474 280.804 183.363 C 279.884 184.043,279.616 184.531,279.664 185.440 C 279.971 191.305,279.625 195.870,278.873 195.870 C 277.659 195.870,277.286 197.104,277.286 201.128 L 277.286 204.864 276.205 204.989 C 275.131 205.112,275.121 205.139,274.926 208.653 C 274.734 212.114,274.708 212.193,273.746 212.193 C 272.819 212.193,272.757 212.327,272.648 214.565 C 272.551 216.575,272.401 216.995,271.665 217.319 C 271.130 217.554,270.808 218.033,270.826 218.565 C 270.842 219.041,270.697 219.332,270.504 219.213 C 270.312 219.094,270.187 219.236,270.227 219.528 C 270.607 222.301,270.197 223.795,269.055 223.795 C 267.918 223.795,267.903 223.825,267.903 225.996 C 267.903 228.449,267.785 228.683,266.547 228.700 C 265.670 228.712,265.658 228.751,265.523 231.918 C 265.499 232.489,265.102 232.899,264.307 233.176 C 263.206 233.560,263.127 233.720,263.127 235.574 C 263.127 237.256,263.013 237.561,262.388 237.561 C 261.412 237.561,260.687 238.482,260.780 239.606 C 260.960 241.797,260.789 242.226,259.685 242.353 C 258.717 242.465,258.591 242.653,258.483 244.155 C 258.387 245.478,258.118 246.012,257.204 246.687 C 256.533 247.183,256.047 247.906,256.047 248.409 C 256.047 249.005,255.741 249.353,255.064 249.522 C 254.088 249.767,254.055 249.856,253.889 252.714 C 253.818 253.940,253.369 254.420,252.506 254.194 C 251.869 254.028,251.671 254.232,251.464 255.267 C 251.312 256.028,250.919 256.621,250.494 256.732 C 249.718 256.935,249.162 258.160,249.555 258.797 C 249.690 259.015,249.613 259.194,249.384 259.194 C 249.155 259.194,248.968 259.636,248.968 260.177 C 248.968 260.964,248.771 261.160,247.984 261.160 C 247.154 261.160,247.001 261.344,247.001 262.340 C 247.001 263.243,246.823 263.520,246.242 263.520 C 245.825 263.520,245.218 263.786,244.894 264.110 C 244.177 264.827,218.682 265.016,218.682 264.304 C 218.682 264.087,217.948 264.441,217.050 265.091 C 216.152 265.741,215.149 266.273,214.820 266.273 C 214.490 266.273,213.921 266.545,213.555 266.877 C 213.187 267.209,211.585 267.637,209.984 267.831 C 208.387 268.025,206.461 268.373,205.706 268.605 C 203.365 269.323,82.838 269.150,80.826 268.425 C 79.961 268.114,78.456 267.853,77.483 267.847 C 76.509 267.840,75.270 267.579,74.730 267.266 C 74.189 266.954,73.304 266.473,72.763 266.199 C 72.222 265.924,71.638 265.475,71.465 265.200 C 70.971 264.415,54.437 264.485,53.995 265.274 C 53.767 265.682,52.855 265.868,50.829 265.919 C 48.913 265.967,47.984 266.145,47.984 266.464 C 47.984 267.345,46.553 268.240,45.144 268.240 C 43.756 268.240,43.265 268.719,43.265 270.072 C 43.265 270.396,42.744 271.181,42.107 271.818 L 40.950 272.975 41.026 279.752 L 41.101 286.529 42.085 286.534 C 42.905 286.539,43.088 286.751,43.192 287.820 C 43.260 288.524,43.462 289.010,43.641 288.899 C 43.821 288.788,44.078 289.139,44.213 289.678 C 44.375 290.323,44.735 290.659,45.262 290.659 C 45.703 290.659,45.955 290.836,45.821 291.052 C 45.680 291.280,46.065 291.445,46.738 291.445 C 47.643 291.445,47.953 291.659,48.141 292.411 C 48.376 293.347,49.827 293.917,51.524 293.742 C 51.849 293.709,82.247 293.709,119.076 293.743 L 186.037 293.805 186.037 320.157 L 186.037 346.509 98.261 346.509 C 21.353 346.509,10.405 346.581,9.842 347.091 C 9.416 347.476,8.246 347.692,6.370 347.731 C 4.439 347.770,3.540 347.941,3.540 348.268 C 3.540 348.966,2.328 349.947,1.082 350.258 L 0.000 350.528 0.000 365.431 C 0.000 377.907,0.089 380.334,0.548 380.334 C 0.849 380.334,1.198 380.600,1.322 380.924 C 1.476 381.326,1.301 381.514,0.774 381.514 C -0.235 381.514,-0.226 382.150,0.787 382.415 C 1.309 382.551,1.488 382.468,1.319 382.166 C 1.160 381.880,1.262 381.894,1.594 382.203 C 1.886 382.473,2.447 382.694,2.842 382.694 C 3.236 382.694,3.718 383.113,3.913 383.624 C 4.107 384.135,4.556 384.665,4.910 384.801 C 6.076 385.248,298.890 385.097,299.728 384.648 C 300.148 384.424,300.492 383.892,300.492 383.467 C 300.492 382.806,300.765 382.694,302.380 382.694 C 304.362 382.694,305.211 382.206,305.211 381.068 C 305.211 380.617,305.577 380.345,306.293 380.262 C 307.143 380.164,307.401 379.906,307.499 379.056 C 307.595 378.222,307.833 377.974,308.539 377.974 C 309.477 377.974,309.931 377.318,309.931 375.963 C 309.931 375.542,310.197 375.094,310.523 374.969 C 311.828 374.469,312.235 372.441,312.247 366.372 C 312.263 358.399,312.119 357.547,310.709 357.265 C 309.942 357.111,309.664 356.864,309.816 356.469 C 310.389 354.975,305.751 349.854,304.109 350.168 C 303.396 350.304,303.100 350.113,302.799 349.320 C 302.248 347.871,301.947 347.766,298.199 347.726 C 295.815 347.700,294.663 347.520,294.199 347.100 C 293.650 346.603,291.700 346.509,281.877 346.509 L 270.206 346.509 270.206 317.797 C 270.206 290.411,270.239 289.086,270.914 289.086 C 271.805 289.086,272.566 288.344,272.566 287.476 C 272.566 287.104,272.977 286.708,273.499 286.577 C 274.213 286.398,274.487 285.991,274.672 284.835 C 274.831 283.840,275.329 282.957,276.138 282.236 C 277.047 281.426,277.316 280.898,277.181 280.189 C 277.080 279.664,277.179 279.122,277.400 278.986 C 277.639 278.838,277.680 278.934,277.500 279.225 C 277.287 279.570,277.469 279.674,278.127 279.581 C 278.880 279.474,279.056 279.214,279.054 278.208 C 279.054 277.525,279.186 277.048,279.349 277.149 C 279.513 277.250,279.646 277.069,279.646 276.748 C 279.646 276.426,280.105 275.802,280.666 275.361 C 281.227 274.919,281.611 274.333,281.520 274.057 C 281.311 273.431,282.019 272.697,283.017 272.506 C 283.622 272.389,283.841 271.874,284.097 269.966 C 284.406 267.666,284.458 267.580,285.432 267.766 C 286.352 267.942,286.427 267.863,286.244 266.904 C 286.078 266.039,286.245 265.742,287.165 265.266 C 288.176 264.744,288.859 263.493,288.670 262.512 C 288.447 261.352,288.776 260.810,289.774 260.695 C 290.786 260.578,290.858 260.445,290.889 258.625 C 290.908 257.517,291.121 256.614,291.383 256.527 C 291.636 256.442,291.763 256.243,291.664 256.083 C 291.565 255.923,291.874 255.805,292.350 255.821 C 293.119 255.847,293.228 255.625,293.333 253.831 C 293.443 251.932,293.521 251.797,294.641 251.573 C 295.696 251.362,295.825 251.187,295.762 250.053 C 295.616 247.374,295.716 247.110,296.982 246.857 C 298.057 246.642,298.185 246.472,298.122 245.333 C 297.983 242.787,298.107 242.281,298.870 242.281 C 299.896 242.281,300.569 241.345,300.482 240.039 C 300.353 238.105,300.478 237.561,301.054 237.561 C 302.211 237.561,302.908 236.335,302.795 234.498 C 302.701 232.971,302.808 232.678,303.561 232.400 C 304.618 232.009,305.290 230.401,305.181 228.522 C 305.048 226.213,305.174 225.762,305.950 225.762 C 307.113 225.762,307.637 224.781,307.567 222.735 C 307.435 218.917,307.490 218.682,308.528 218.682 C 309.698 218.682,310.031 217.805,309.917 215.019 C 309.791 211.941,309.860 211.668,310.793 211.532 C 311.958 211.362,312.433 209.411,312.173 205.866 C 311.956 202.913,312.040 202.607,313.258 201.934 C 314.441 201.280,314.752 199.293,314.564 193.584 C 314.414 189.015,314.475 188.288,315.049 187.881 C 316.760 186.665,316.814 186.145,316.814 171.019 L 316.814 156.590 315.634 155.359 L 314.454 154.127 314.579 149.138 C 314.716 143.639,314.493 142.570,313.061 141.852 C 312.146 141.392,312.101 141.210,312.213 138.431 C 312.331 135.490,311.457 132.940,310.330 132.940 C 310.111 132.940,309.931 132.070,309.931 131.006 C 309.931 128.462,309.648 127.827,308.512 127.827 C 307.510 127.827,307.456 127.683,307.566 125.335 C 307.623 124.105,307.417 123.630,306.453 122.769 C 305.586 121.995,305.235 121.294,305.142 120.148 C 305.030 118.772,304.885 118.569,303.933 118.460 C 302.938 118.345,302.852 118.198,302.852 116.624 C 302.852 114.307,302.545 113.668,301.433 113.668 C 300.565 113.668,300.284 113.268,300.473 112.305 C 300.719 111.056,300.009 109.404,299.131 109.184 C 298.465 109.017,298.147 108.625,298.059 107.865 C 297.962 107.017,297.703 106.758,296.853 106.660 C 296.170 106.582,295.759 106.292,295.736 105.874 C 295.716 105.509,295.672 104.684,295.637 104.039 C 295.592 103.181,295.285 102.727,294.494 102.346 C 293.756 101.991,293.412 101.523,293.412 100.875 C 293.412 100.134,293.132 99.852,292.142 99.595 C 291.151 99.338,290.870 99.055,290.864 98.306 C 290.857 97.553,290.622 97.318,289.774 97.221 C 288.868 97.116,288.692 96.909,288.692 95.942 C 288.692 95.183,288.492 94.789,288.107 94.789 C 287.785 94.789,287.054 94.048,286.483 93.142 C 285.158 91.043,282.262 88.180,280.965 87.687 C 280.414 87.478,279.871 86.952,279.758 86.520 C 279.548 85.719,278.033 85.084,277.345 85.509 C 277.124 85.646,277.059 85.390,277.188 84.895 C 277.339 84.318,277.266 84.135,276.959 84.325 C 276.657 84.511,276.594 84.379,276.769 83.925 C 276.971 83.399,276.877 83.305,276.351 83.506 C 275.947 83.661,275.769 83.609,275.912 83.378 C 276.044 83.164,275.896 82.989,275.582 82.989 C 275.268 82.989,274.898 82.537,274.759 81.983 C 274.571 81.233,274.290 81.008,273.654 81.098 C 272.982 81.194,272.720 80.941,272.420 79.906 C 272.088 78.761,271.900 78.614,270.950 78.753 C 270.351 78.841,269.871 78.812,269.884 78.689 C 269.953 78.004,269.746 77.472,269.195 76.921 C 268.452 76.178,267.281 76.080,267.684 76.794 C 267.906 77.188,267.856 77.188,267.432 76.794 C 267.141 76.524,266.596 76.303,266.221 76.303 C 265.769 76.303,265.497 75.937,265.415 75.221 C 265.319 74.388,265.079 74.137,264.368 74.130 C 263.705 74.123,263.295 73.763,262.912 72.852 C 262.476 71.817,262.158 71.583,261.179 71.583 C 260.021 71.583,258.407 70.438,258.407 69.617 C 258.407 69.400,257.876 69.223,257.227 69.223 C 256.353 69.223,256.047 69.040,256.047 68.515 C 256.047 67.336,255.204 66.863,253.102 66.863 C 251.176 66.863,251.100 66.822,251.115 65.782 C 251.129 64.850,250.972 64.698,249.990 64.685 C 249.178 64.674,248.756 64.417,248.526 63.794 C 248.218 62.961,246.638 62.068,245.678 62.183 C 244.682 62.303,244.248 62.114,244.248 61.563 C 244.248 60.831,242.563 59.702,241.618 59.800 C 240.189 59.949,239.528 59.772,239.528 59.242 C 239.528 58.364,238.493 57.756,236.706 57.584 C 235.524 57.470,234.799 57.135,234.233 56.441 C 233.239 55.222,231.401 54.866,230.088 55.638 M233.628 57.079 C 233.628 57.763,232.929 57.405,232.722 56.615 C 232.548 55.951,232.611 55.889,233.069 56.270 C 233.377 56.525,233.628 56.889,233.628 57.079 M247.714 64.086 C 247.812 64.381,247.665 64.528,247.370 64.430 C 247.086 64.335,246.776 64.025,246.681 63.741 C 246.583 63.446,246.731 63.299,247.026 63.397 C 247.309 63.492,247.619 63.802,247.714 64.086 M121.526 86.735 C 120.846 87.554,121.348 87.951,122.105 87.194 C 122.440 86.859,122.714 86.484,122.714 86.360 C 122.714 85.924,122.017 86.143,121.526 86.735 M248.604 105.265 C 249.481 106.218,249.490 106.267,248.719 105.866 C 248.258 105.626,247.776 105.160,247.650 104.829 C 247.328 103.990,247.507 104.072,248.604 105.265 M198.923 106.617 C 198.547 106.836,198.056 107.357,197.832 107.776 C 197.228 108.905,198.400 108.364,199.199 107.145 C 199.896 106.081,199.884 106.057,198.923 106.617 M86.136 127.949 C 86.136 128.299,86.490 128.775,86.922 129.007 C 87.355 129.238,87.709 129.272,87.709 129.082 C 87.709 128.891,87.355 128.415,86.922 128.024 C 86.228 127.395,86.136 127.386,86.136 127.949 M177.213 139.992 C 176.805 140.442,176.557 140.897,176.662 141.001 C 177.003 141.342,178.284 140.161,178.117 139.660 C 178.007 139.330,177.716 139.436,177.213 139.992 M281.392 157.738 C 281.683 157.498,281.835 157.753,281.867 158.534 C 281.893 159.167,281.816 159.685,281.696 159.685 C 281.205 159.685,280.039 158.341,280.039 157.776 C 280.039 157.310,280.147 157.276,280.502 157.631 C 280.784 157.913,281.131 157.955,281.392 157.738 M137.660 167.863 C 137.660 168.273,138.510 169.125,138.918 169.125 C 139.498 169.125,139.241 168.532,138.446 168.036 C 138.014 167.766,137.660 167.688,137.660 167.863 M144.346 172.862 C 144.346 173.171,144.715 173.621,145.166 173.863 C 146.295 174.467,146.327 174.206,145.251 173.170 C 144.611 172.554,144.346 172.464,144.346 172.862 M313.483 200.175 C 313.042 200.999,312.291 201.604,312.291 201.136 C 312.291 200.832,313.487 199.410,313.742 199.410 C 313.825 199.410,313.708 199.754,313.483 200.175 M272.566 218.486 C 272.566 218.810,272.306 219.076,271.989 219.076 C 271.637 219.076,271.500 218.845,271.638 218.486 C 271.762 218.161,272.022 217.896,272.215 217.896 C 272.408 217.896,272.566 218.161,272.566 218.486 M303.912 230.780 C 303.088 231.604,302.852 231.695,302.852 231.188 C 302.852 230.829,303.206 230.422,303.638 230.285 C 304.071 230.148,304.425 229.841,304.425 229.603 C 304.425 229.365,304.548 229.294,304.699 229.445 C 304.850 229.596,304.496 230.196,303.912 230.780 M287.514 263.715 C 287.006 264.255,286.489 264.594,286.364 264.468 C 286.238 264.342,286.554 263.900,287.064 263.486 C 288.369 262.428,288.608 262.550,287.514 263.715 M45.804 289.452 C 46.198 290.089,45.342 290.283,44.834 289.671 C 44.439 289.195,44.463 289.086,44.963 289.086 C 45.301 289.086,45.680 289.250,45.804 289.452 M268.141 332.420 C 268.081 339.628,268.032 333.845,268.032 319.567 C 268.032 305.290,268.081 299.392,268.141 306.461 C 268.201 313.530,268.201 325.211,268.141 332.420 M302.065 349.263 C 302.296 349.695,302.419 350.049,302.336 350.049 C 302.254 350.049,301.866 349.695,301.475 349.263 C 301.083 348.830,300.961 348.476,301.203 348.476 C 301.446 348.476,301.833 348.830,302.065 349.263 M5.015 383.186 C 4.960 383.459,5.219 383.627,5.598 383.563 C 6.069 383.485,6.209 383.635,6.051 384.048 C 5.876 384.504,5.643 384.551,5.074 384.246 C 4.295 383.829,4.036 382.694,4.720 382.694 C 4.936 382.694,5.069 382.915,5.015 383.186 " stroke="none" fill="#2c3434" fill-rule="evenodd"></path></g></svg>